<?xml version="1.0" encoding="utf-8"?>
<!-- Generator: Adobe Illustrator 16.0.0, SVG Export Plug-In . SVG Version: 6.00 Build 0)  -->
<!DOCTYPE svg PUBLIC "-//W3C//DTD SVG 1.1//EN" "http://www.w3.org/Graphics/SVG/1.1/DTD/svg11.dtd">
<svg version="1.1" id="图层_1" xmlns="http://www.w3.org/2000/svg" xmlns:xlink="http://www.w3.org/1999/xlink" x="0px" y="0px"
	 width="20px" height="20px" viewBox="0 0 20 20" enable-background="new 0 0 20 20" xml:space="preserve">
<circle fill="#00B0FF" cx="10" cy="10" r="9"/>
<g>
	<g>
		<path fill="#FFFFFF" d="M14.519,13.026V6.809c0-0.913-0.746-1.658-1.657-1.658H7.14c-0.912,0-1.657,0.746-1.657,1.658v6.218
			c0,0.828,0.663,1.574,1.492,1.658l-1.492,1.822h1.575l1.575-1.822h2.82l1.491,1.822h1.574l-1.407-1.822
			C13.939,14.519,14.519,13.854,14.519,13.026L14.519,13.026z M7.223,13.771c-0.414,0-0.747-0.331-0.747-0.745
			c0-0.416,0.333-0.748,0.747-0.748c0.415,0,0.747,0.332,0.747,0.748C7.97,13.44,7.721,13.771,7.223,13.771L7.223,13.771z
			 M12.614,13.771c-0.418,0-0.747-0.331-0.747-0.745c0-0.416,0.329-0.748,0.747-0.748c0.414,0,0.743,0.332,0.743,0.748
			C13.442,13.44,13.111,13.771,12.614,13.771L12.614,13.771z M13.772,9.71c0,0.498-0.33,0.83-0.828,0.83H7.058
			c-0.498,0-0.83-0.332-0.83-0.83V7.804c0-0.498,0.332-0.83,0.83-0.83h5.803c0.496,0,0.828,0.332,0.828,0.83L13.772,9.71z
			 M13.772,9.71"/>
		<path fill="#FFFFFF" d="M8.964,4.736h2.075c0.33,0,0.578-0.249,0.578-0.581c0-0.332-0.248-0.663-0.578-0.663H8.964
			c-0.331,0-0.58,0.249-0.58,0.58C8.384,4.487,8.633,4.736,8.964,4.736L8.964,4.736z M8.964,4.736"/>
	</g>
</g>
</svg>
