<?xml version="1.0" encoding="utf-8"?>
<!-- Generator: Adobe Illustrator 16.0.0, SVG Export Plug-In . SVG Version: 6.00 Build 0)  -->
<!DOCTYPE svg PUBLIC "-//W3C//DTD SVG 1.1//EN" "http://www.w3.org/Graphics/SVG/1.1/DTD/svg11.dtd">
<svg version="1.1" id="图层_1" xmlns="http://www.w3.org/2000/svg" xmlns:xlink="http://www.w3.org/1999/xlink" x="0px" y="0px"
	 width="20px" height="20px" viewBox="0 0 20 20" enable-background="new 0 0 20 20" xml:space="preserve">
<circle fill="#BE5547" cx="10.381" cy="9.951" r="9"/>
<g>
	<defs>
		<rect id="SVGID_1_" x="4.737" y="4.696" width="11.286" height="10.507"/>
	</defs>
	<clipPath id="SVGID_2_">
		<use xlink:href="#SVGID_1_"  overflow="visible"/>
	</clipPath>
	<path clip-path="url(#SVGID_2_)" fill="#FFFFFF" d="M12.836,8.245c0.145,0,0.291,0,0.436,0.072V5.136h-1.736v1.373L9.727,4.701
		L4.736,9.62h0.868v4.991h2.966v-3.184h0.506C9.365,9.62,10.956,8.245,12.836,8.245L12.836,8.245z M12.836,8.245"/>
</g>
<path fill="#FFFFFF" d="M14.645,12.585"/>
<path fill="#FFFFFF" d="M12.98,8.969c-1.734,0-3.182,1.374-3.182,3.11s1.447,3.11,3.111,3.11c1.662,0,3.109-1.446,3.109-3.11
	S14.791,8.969,12.98,8.969z M13.211,9.855l-0.069,3.322h-0.479l-0.066-3.322H13.211z M13.184,14.447
	c-0.074,0.074-0.16,0.112-0.258,0.112c-0.12,0-0.217-0.038-0.291-0.112s-0.111-0.162-0.111-0.263c0-0.107,0.039-0.197,0.115-0.271
	c0.075-0.073,0.166-0.11,0.271-0.11c0.104,0,0.194,0.039,0.27,0.114c0.076,0.076,0.115,0.165,0.115,0.267
	C13.295,14.285,13.258,14.373,13.184,14.447z"/>
</svg>
