<?xml version="1.0" encoding="utf-8"?>
<!-- Generator: Adobe Illustrator 16.0.0, SVG Export Plug-In . SVG Version: 6.00 Build 0)  -->
<!DOCTYPE svg PUBLIC "-//W3C//DTD SVG 1.1//EN" "http://www.w3.org/Graphics/SVG/1.1/DTD/svg11.dtd">
<svg version="1.1" id="图层_1" xmlns="http://www.w3.org/2000/svg" xmlns:xlink="http://www.w3.org/1999/xlink" x="0px" y="0px"
	 width="20px" height="20px" viewBox="0 0 20 20" enable-background="new 0 0 20 20" xml:space="preserve">
<circle fill="#668DB5" cx="10.381" cy="9.976" r="9"/>
<g>
	<path fill="#FFFFFF" d="M15.084,9.242h-4.35V6.308c0-0.435-0.353-0.788-0.788-0.788h-4.27c-0.436,0-0.789,0.354-0.789,0.788v8.123
		h10.985v-4.4C15.873,9.595,15.52,9.242,15.084,9.242L15.084,9.242z M5.922,6.53h1.56v1.396h-1.56V6.53z M5.922,8.355h1.56v1.396
		h-1.56V8.355z M5.922,10.182h1.56v1.395h-1.56V10.182z M9.7,13.772H5.922v-1.435H9.7V13.772z M9.7,11.577H8.14v-1.395H9.7V11.577z
		 M9.7,9.752H8.14V8.355H9.7V9.752z M9.7,7.926H8.14V6.53H9.7V7.926z M12.402,13.071h-1.331c-0.151,0-0.272-0.122-0.272-0.272
		s0.122-0.273,0.272-0.273h1.331c0.15,0,0.273,0.123,0.273,0.273S12.553,13.071,12.402,13.071L12.402,13.071z M12.402,12.021h-1.331
		c-0.151,0-0.272-0.123-0.272-0.273s0.122-0.273,0.272-0.273h1.331c0.15,0,0.273,0.123,0.273,0.273S12.553,12.021,12.402,12.021
		L12.402,12.021z M12.402,10.97h-1.331c-0.151,0-0.272-0.121-0.272-0.272c0-0.151,0.122-0.273,0.272-0.273h1.331
		c0.15,0,0.273,0.123,0.273,0.273C12.676,10.849,12.553,10.97,12.402,10.97L12.402,10.97z M14.713,13.071h-1.331
		c-0.151,0-0.272-0.122-0.272-0.272s0.121-0.273,0.272-0.273h1.331c0.151,0,0.273,0.123,0.273,0.273
		C14.985,12.949,14.864,13.071,14.713,13.071L14.713,13.071z M14.713,12.021h-1.331c-0.151,0-0.272-0.123-0.272-0.273
		s0.121-0.273,0.272-0.273h1.331c0.151,0,0.273,0.123,0.273,0.273C14.985,11.898,14.864,12.021,14.713,12.021L14.713,12.021z
		 M14.713,10.97h-1.331c-0.151,0-0.272-0.121-0.272-0.272c0-0.151,0.121-0.273,0.272-0.273h1.331c0.151,0,0.273,0.123,0.273,0.273
		C14.985,10.849,14.864,10.97,14.713,10.97L14.713,10.97z M14.713,10.97"/>
</g>
</svg>
