<?xml version="1.0" encoding="utf-8"?>
<!-- Generator: Adobe Illustrator 16.0.0, SVG Export Plug-In . SVG Version: 6.00 Build 0)  -->
<!DOCTYPE svg PUBLIC "-//W3C//DTD SVG 1.1//EN" "http://www.w3.org/Graphics/SVG/1.1/DTD/svg11.dtd">
<svg version="1.1" id="图层_1" xmlns="http://www.w3.org/2000/svg" xmlns:xlink="http://www.w3.org/1999/xlink" x="0px" y="0px"
	 width="20px" height="20px" viewBox="0 0 20 20" enable-background="new 0 0 20 20" xml:space="preserve">
<circle fill="#00923F" cx="10.044" cy="9.844" r="9"/>
<g>
	<g>
		<path fill="#FFFFFF" d="M4.71,12.823c-0.635,0.008-0.971,0.597-0.656,1.126c0.15,0.25,0.399,0.33,0.662,0.332
			c1.251,0.009,2.504,0.014,3.755-0.002c0.465-0.005,0.756-0.293,0.806-0.759c0.076-0.702,0.131-1.404,0.196-2.106
			c0.009-0.104,0.023-0.208,0.099-0.321c0.13,0.24,0.266,0.478,0.391,0.722c0.659,1.289,1.319,2.578,1.971,3.872
			c0.196,0.388,0.435,0.698,0.923,0.663c0.589-0.043,0.861-0.592,0.575-1.172c-0.465-0.944-0.937-1.885-1.409-2.825
			c-0.322-0.64-0.652-1.273-0.969-1.914c-0.049-0.099-0.098-0.246-0.061-0.331c0.289-0.64,0.601-1.271,0.936-1.967
			c0.333,0.419,0.633,0.775,0.908,1.148c0.184,0.247,0.408,0.354,0.712,0.35c0.636-0.009,1.271,0.004,1.907-0.008
			c0.384-0.006,0.611-0.176,0.678-0.461c0.095-0.409-0.181-0.734-0.66-0.748c-0.477-0.014-0.954-0.009-1.43,0
			c-0.205,0.004-0.348-0.048-0.475-0.225c-0.363-0.509-0.754-0.998-1.129-1.5c-0.298-0.4-0.676-0.611-1.192-0.604
			c-1.121,0.016-2.245,0.009-3.367,0.003C7.432,6.094,7.099,6.269,6.872,6.659c-0.34,0.583-0.688,1.162-1.028,1.745
			c-0.188,0.32-0.12,0.662,0.155,0.837c0.304,0.195,0.66,0.106,0.869-0.231C7.154,8.545,7.44,8.079,7.707,7.602
			C7.849,7.347,8.037,7.23,8.33,7.246c0.285,0.016,0.572,0.003,0.915,0.003c-0.05,0.145-0.073,0.245-0.118,0.334
			C8.926,7.983,8.748,8.396,8.51,8.772c-0.381,0.604-0.502,1.259-0.528,1.955c-0.021,0.575-0.096,1.147-0.113,1.722
			c-0.008,0.309-0.129,0.381-0.417,0.375C6.539,12.81,5.625,12.813,4.71,12.823L4.71,12.823z M11.634,5.857
			c0.705-0.01,1.25-0.555,1.251-1.251c0.001-0.739-0.53-1.265-1.281-1.271c-0.646-0.005-1.231,0.584-1.238,1.246
			C10.359,5.274,10.948,5.868,11.634,5.857L11.634,5.857z M11.634,5.857"/>
	</g>
</g>
</svg>
