<?xml version="1.0" encoding="utf-8"?>
<!-- Generator: Adobe Illustrator 16.0.0, SVG Export Plug-In . SVG Version: 6.00 Build 0)  -->
<!DOCTYPE svg PUBLIC "-//W3C//DTD SVG 1.1//EN" "http://www.w3.org/Graphics/SVG/1.1/DTD/svg11.dtd">
<svg version="1.1" id="图层_1" xmlns="http://www.w3.org/2000/svg" xmlns:xlink="http://www.w3.org/1999/xlink" x="0px" y="0px"
	 width="20px" height="20px" viewBox="0 0 20 20" enable-background="new 0 0 20 20" xml:space="preserve">
<circle fill="#B28247" cx="9.961" cy="9.943" r="9"/>
<g>
	<path fill="#FFFFFF" d="M12.315,4.094H7.608c-0.589,0-1.07,0.438-1.07,0.975v9.749c0,0.537,0.481,0.976,1.07,0.976h4.708
		c0.589-0.001,1.069-0.439,1.069-0.976V5.069C13.385,4.532,12.904,4.094,12.315,4.094 M9.32,4.873h1.284
		c0.118,0,0.214,0.087,0.214,0.195c0,0.107-0.096,0.195-0.214,0.195H9.32c-0.118,0-0.214-0.088-0.214-0.195
		C9.106,4.961,9.202,4.873,9.32,4.873 M9.962,15.402c-0.355,0-0.642-0.262-0.642-0.585s0.287-0.585,0.642-0.585
		c0.354,0,0.642,0.262,0.642,0.585S10.316,15.402,9.962,15.402 M12.958,13.843H6.966V6.043h5.992V13.843z M12.958,13.843"/>
</g>
</svg>
