<?xml version="1.0" encoding="utf-8"?>
<!-- Generator: Adobe Illustrator 16.0.0, SVG Export Plug-In . SVG Version: 6.00 Build 0)  -->
<!DOCTYPE svg PUBLIC "-//W3C//DTD SVG 1.1//EN" "http://www.w3.org/Graphics/SVG/1.1/DTD/svg11.dtd">
<svg version="1.1" id="图层_1" xmlns="http://www.w3.org/2000/svg" xmlns:xlink="http://www.w3.org/1999/xlink" x="0px" y="0px"
	 width="20px" height="20px" viewBox="0 0 20 20" enable-background="new 0 0 20 20" xml:space="preserve">
<circle fill="#0ABCDF" cx="9.961" cy="9.663" r="9"/>
<g>
	<g>
		<path fill="#FFFFFF" d="M15.438,5.843c0.426,1.032,0.224,2.263-0.616,3.101c-0.923,0.923-2.317,1.068-3.402,0.457l-0.784,0.855
			l0.56,0.563l0.334-0.334c0.171-0.171,0.448-0.171,0.618,0l2.713,2.739c0.171,0.17,0.171,0.447,0,0.618l-1.238,1.24
			c-0.171,0.17-0.448,0.17-0.619,0l-2.711-2.741c-0.171-0.171-0.171-0.448,0-0.618l0.304-0.306l-0.532-0.533L6.313,14.98
			c-0.342,0.342-0.896,0.342-1.238,0l-0.31-0.312c-0.342-0.34-0.342-0.896,0-1.236l4.272-3.579L6.2,7.008l-0.896,0L4.267,5.34
			l0.834-0.836l1.706,1.044L6.82,6.425l2.87,2.882l0.835-0.7C9.708,7.494,9.794,5.927,10.8,4.921
			c0.835-0.835,2.059-1.042,3.087-0.623l-1.839,1.814l1.547,1.547L15.438,5.843z M5.792,13.868c-0.171-0.171-0.449-0.171-0.62,0
			s-0.171,0.449,0,0.619c0.171,0.171,0.448,0.171,0.62,0C5.963,14.317,5.963,14.039,5.792,13.868L5.792,13.868z M5.792,13.868"/>
	</g>
</g>
</svg>
