<?xml version="1.0" encoding="utf-8"?>
<!-- Generator: Adobe Illustrator 16.0.0, SVG Export Plug-In . SVG Version: 6.00 Build 0)  -->
<!DOCTYPE svg PUBLIC "-//W3C//DTD SVG 1.1//EN" "http://www.w3.org/Graphics/SVG/1.1/DTD/svg11.dtd">
<svg version="1.1" id="图层_1" xmlns="http://www.w3.org/2000/svg" xmlns:xlink="http://www.w3.org/1999/xlink" x="0px" y="0px"
	 width="20px" height="20px" viewBox="0 0 20 20" enable-background="new 0 0 20 20" xml:space="preserve">
<circle fill="#E58C01" cx="9.922" cy="10.411" r="9"/>
<g>
	<path fill="#FFFFFF" d="M8.143,4.719c0-0.197-0.159-0.356-0.355-0.356H7.432c-0.196,0-0.355,0.159-0.355,0.356v2.135h1.067V4.719
		L8.143,4.719L8.143,4.719z M12.768,4.719c0-0.197-0.158-0.356-0.355-0.356h-0.355c-0.196,0-0.355,0.159-0.355,0.356v2.135h1.066
		V4.719L12.768,4.719z M11.701,16.104c0,0.197,0.159,0.355,0.355,0.355h0.355c0.197,0,0.355-0.158,0.355-0.355V13.97h-1.066V16.104z
		 M15.97,8.454V8.099c0-0.197-0.158-0.356-0.355-0.356V7.565c0-0.196-0.159-0.356-0.355-0.356c-0.195,0-0.356,0.16-0.356,0.356
		v0.178h-1.066V7.565c0-0.196-0.159-0.356-0.355-0.356s-0.356,0.16-0.356,0.356v0.178h-1.067V7.565c0-0.196-0.159-0.356-0.355-0.356
		s-0.356,0.16-0.356,0.356v0.178h-1.066V7.565c0-0.196-0.159-0.356-0.356-0.356s-0.356,0.16-0.356,0.356v0.178H8.499V7.565
		c0-0.196-0.159-0.356-0.356-0.356c-0.196,0-0.355,0.16-0.355,0.356v0.178H6.721V7.565c0-0.196-0.159-0.356-0.356-0.356
		c-0.196,0-0.356,0.16-0.356,0.356v0.178H4.942V7.565c0-0.196-0.16-0.356-0.356-0.356c-0.197,0-0.356,0.16-0.356,0.356v0.178
		c-0.196,0-0.355,0.159-0.355,0.356v0.355c0,0.197,0.159,0.355,0.356,0.355v3.203c-0.197,0-0.356,0.159-0.356,0.355v0.355
		c0,0.196,0.159,0.355,0.356,0.355v0.179c0,0.196,0.159,0.355,0.355,0.355s0.356-0.159,0.356-0.355v-0.179h1.067v0.179
		c0,0.196,0.16,0.355,0.356,0.355c0.197,0,0.356-0.159,0.356-0.355v-0.179h1.067v0.179c0,0.196,0.16,0.355,0.355,0.355
		c0.197,0,0.356-0.159,0.356-0.355v-0.179h1.068v0.179c0,0.196,0.159,0.355,0.355,0.355c0.197,0,0.356-0.159,0.356-0.355v-0.179
		h1.066v0.179c0,0.196,0.16,0.355,0.356,0.355s0.355-0.159,0.355-0.355v-0.179h1.067v0.179c0,0.196,0.16,0.355,0.356,0.355
		s0.355-0.159,0.355-0.355v-0.179h1.066v0.179c0,0.196,0.161,0.355,0.356,0.355c0.196,0,0.355-0.159,0.355-0.355v-0.179
		c0.197,0,0.355-0.159,0.355-0.355v-0.355c0-0.196-0.158-0.355-0.355-0.355V8.81C15.812,8.81,15.97,8.651,15.97,8.454L15.97,8.454z
		 M6.008,12.013H4.941V8.81h1.067V12.013z M7.788,12.013H6.72V8.81h1.067V12.013z M9.566,12.013H8.499V8.81h1.067V12.013z
		 M11.345,12.013h-1.067V8.81h1.067V12.013z M13.124,12.013h-1.067V8.81h1.067V12.013z M14.902,12.013h-1.066V8.81h1.066V12.013z
		 M7.076,16.104c0,0.197,0.159,0.355,0.355,0.355h0.356c0.197,0,0.355-0.158,0.355-0.355V13.97H7.076V16.104z M7.076,16.104"/>
</g>
</svg>
