<?xml version="1.0" encoding="utf-8"?>
<!-- Generator: Adobe Illustrator 16.0.0, SVG Export Plug-In . SVG Version: 6.00 Build 0)  -->
<!DOCTYPE svg PUBLIC "-//W3C//DTD SVG 1.1//EN" "http://www.w3.org/Graphics/SVG/1.1/DTD/svg11.dtd">
<svg version="1.1" id="图层_1" xmlns="http://www.w3.org/2000/svg" xmlns:xlink="http://www.w3.org/1999/xlink" x="0px" y="0px"
	 width="20px" height="20px" viewBox="0 0 20 20" enable-background="new 0 0 20 20" xml:space="preserve">
<circle fill="#D6A37A" cx="9.845" cy="10.094" r="9"/>
<g>
	<g>
		<path fill="#FFFFFF" d="M10.001,4.174c-4.305,0-5.268,3.878-5.268,3.878v7.961h1.049V8.473c0,0,0.737-3.257,4.112-3.257
			c3.374,0,3.991,3.257,3.991,3.257v7.541h1.072V8.053C14.957,8.053,13.947,4.174,10.001,4.174L10.001,4.174z M9.896,5.642
			c-3.021,0-3.533,2.911-3.533,2.911v7.461h0.34l1.892-3.727h0.008V8.856c0,0,0.198-1.124,1.363-1.124
			c1.167,0,1.32,1.124,1.32,1.124v3.431l1.891,3.727h0.141V8.553C13.316,8.553,12.917,5.642,9.896,5.642L9.896,5.642z M9.081,12.287
			l-1.892,3.727h5.523l-1.891-3.727H9.081z M9.081,12.287"/>
	</g>
</g>
</svg>
